<svg width="1280" height="720" viewBox="0 0 1280 720" fill="none" xmlns="http://www.w3.org/2000/svg">
  <rect width="1280" height="720" fill="#050505"/>
  <rect x="56" y="48" width="1168" height="624" rx="20" fill="#0c0c0c" stroke="#2b2b2b"/>
  <rect x="92" y="84" width="246" height="552" rx="16" fill="#111" stroke="#2a2a2a"/>
  <rect x="370" y="84" width="814" height="90" rx="14" fill="#f5f5f5"/>
  <rect x="370" y="202" width="814" height="434" rx="16" fill="#101010" stroke="#2f2f2f"/>
  <path d="M482 274h560M482 338h438M482 402h510M482 466h360M482 530h474" stroke="#e8e8e8" stroke-width="18" stroke-linecap="round"/>
  <path d="M154 166h122M154 226h96M154 286h132M154 398h118M154 458h86M154 518h128" stroke="#f4f4f4" stroke-width="14" stroke-linecap="round"/>
  <path d="M420 129h168M736 129h108M1000 129h88" stroke="#060606" stroke-width="16" stroke-linecap="round"/>
  <circle cx="1110" cy="558" r="48" fill="#fff"/>
  <path d="M1098 535l42 24-42 24v-48z" fill="#050505"/>
</svg>
